<svg width="793" height="1080" viewBox="0 0 793 1080" fill="none" xmlns="http://www.w3.org/2000/svg">
<mask id="mask0_203_2" style="mask-type:alpha" maskUnits="userSpaceOnUse" x="317" y="540" width="582" height="606">
<rect x="317" y="540" width="582" height="606" fill="#8A3C41"/>
</mask>
<g mask="url(#mask0_203_2)">
<rect width="891.852" height="2.34299" transform="matrix(0.757968 -0.652292 0.488351 0.872647 62.7246 736.251)" fill="#B8DCFF"/>
<rect width="891.852" height="2.34299" transform="matrix(0.757968 -0.652292 0.488351 0.872647 68.4458 746.474)" fill="#B8DCFF"/>
<rect width="891.852" height="2.34299" transform="matrix(0.757968 -0.652292 0.488351 0.872647 74.1665 756.698)" fill="#B8DCFF"/>
<rect width="891.852" height="2.34299" transform="matrix(0.757968 -0.652292 0.488351 0.872647 79.8877 766.921)" fill="#B8DCFF"/>
<rect width="891.852" height="2.34299" transform="matrix(0.757968 -0.652292 0.488351 0.872647 85.6079 777.143)" fill="#B8DCFF"/>
<rect width="891.852" height="2.34299" transform="matrix(0.757968 -0.652292 0.488351 0.872647 91.3301 787.366)" fill="#B8DCFF"/>
<rect width="891.852" height="2.34299" transform="matrix(0.757968 -0.652292 0.488351 0.872647 97.0503 797.589)" fill="#B8DCFF"/>
<rect width="891.852" height="2.34299" transform="matrix(0.757968 -0.652292 0.488351 0.872647 102.771 807.812)" fill="#B8DCFF"/>
<rect width="891.852" height="2.34299" transform="matrix(0.757968 -0.652292 0.488351 0.872647 108.492 818.036)" fill="#B8DCFF"/>
<rect width="891.852" height="2.34299" transform="matrix(0.757968 -0.652292 0.488351 0.872647 114.213 828.258)" fill="#B8DCFF"/>
<rect width="891.852" height="2.34299" transform="matrix(0.757968 -0.652292 0.488351 0.872647 119.935 838.482)" fill="#B8DCFF"/>
<rect width="891.852" height="2.34299" transform="matrix(0.757968 -0.652292 0.488351 0.872647 125.655 848.704)" fill="#B8DCFF"/>
<rect width="891.852" height="2.34299" transform="matrix(0.757968 -0.652292 0.488351 0.872647 131.376 858.928)" fill="#B8DCFF"/>
<rect width="891.852" height="2.34299" transform="matrix(0.757968 -0.652292 0.488351 0.872647 137.098 869.151)" fill="#B8DCFF"/>
<rect width="891.852" height="2.34299" transform="matrix(0.757968 -0.652292 0.488351 0.872647 142.819 879.374)" fill="#B8DCFF"/>
<rect width="891.852" height="2.34299" transform="matrix(0.757968 -0.652292 0.488351 0.872647 148.54 889.597)" fill="#B8DCFF"/>
<rect width="891.852" height="2.34299" transform="matrix(0.757968 -0.652292 0.488351 0.872647 154.26 899.819)" fill="#B8DCFF"/>
<rect width="891.852" height="2.34299" transform="matrix(0.757968 -0.652292 0.488351 0.872647 159.982 910.043)" fill="#B8DCFF"/>
<rect width="891.852" height="2.34299" transform="matrix(0.757968 -0.652292 0.488351 0.872647 165.702 920.266)" fill="#B8DCFF"/>
<rect width="891.852" height="2.34299" transform="matrix(0.757968 -0.652292 0.488351 0.872647 171.424 930.488)" fill="#B8DCFF"/>
<rect width="891.852" height="2.34299" transform="matrix(0.757968 -0.652292 0.488351 0.872647 177.144 940.712)" fill="#B8DCFF"/>
<rect width="891.852" height="2.34299" transform="matrix(0.757968 -0.652292 0.488351 0.872647 182.865 950.934)" fill="#B8DCFF"/>
<rect width="891.852" height="2.34299" transform="matrix(0.757968 -0.652292 0.488351 0.872647 188.587 961.158)" fill="#B8DCFF"/>
<rect width="891.852" height="2.34299" transform="matrix(0.757968 -0.652292 0.488351 0.872647 194.308 971.38)" fill="#B8DCFF"/>
<rect width="891.852" height="2.34299" transform="matrix(0.757968 -0.652292 0.488351 0.872647 200.028 981.604)" fill="#B8DCFF"/>
<rect width="891.852" height="2.34299" transform="matrix(0.757968 -0.652292 0.488351 0.872647 205.75 991.827)" fill="#B8DCFF"/>
<rect width="891.852" height="2.34299" transform="matrix(0.757968 -0.652292 0.488351 0.872647 211.471 1002.05)" fill="#B8DCFF"/>
<rect width="891.852" height="2.34299" transform="matrix(0.757968 -0.652292 0.488351 0.872647 217.191 1012.27)" fill="#B8DCFF"/>
<rect width="891.852" height="2.34299" transform="matrix(0.757968 -0.652292 0.488351 0.872647 222.913 1022.5)" fill="#B8DCFF"/>
<rect width="891.852" height="2.34299" transform="matrix(0.757968 -0.652292 0.488351 0.872647 228.633 1032.72)" fill="#B8DCFF"/>
<rect width="891.852" height="2.34299" transform="matrix(0.757968 -0.652292 0.488351 0.872647 234.355 1042.94)" fill="#B8DCFF"/>
<rect width="891.852" height="2.34299" transform="matrix(0.757968 -0.652292 0.488351 0.872647 240.075 1053.16)" fill="#B8DCFF"/>
<rect width="891.852" height="2.34299" transform="matrix(0.757968 -0.652292 0.488351 0.872647 245.796 1063.39)" fill="#B8DCFF"/>
<rect width="891.852" height="2.34299" transform="matrix(0.757968 -0.652292 0.488351 0.872647 251.517 1073.61)" fill="#B8DCFF"/>
<rect width="891.852" height="2.34299" transform="matrix(0.757968 -0.652292 0.488351 0.872647 257.238 1083.83)" fill="#B8DCFF"/>
<rect width="891.852" height="2.34299" transform="matrix(0.757968 -0.652292 0.488351 0.872647 262.959 1094.06)" fill="#B8DCFF"/>
<rect width="891.852" height="2.34299" transform="matrix(0.757968 -0.652292 0.488351 0.872647 268.681 1104.28)" fill="#B8DCFF"/>
<rect width="891.852" height="2.34299" transform="matrix(0.757968 -0.652292 0.488351 0.872647 274.401 1114.5)" fill="#B8DCFF"/>
<rect width="891.852" height="2.34299" transform="matrix(0.757968 -0.652292 0.488351 0.872647 280.123 1124.73)" fill="#B8DCFF"/>
<rect width="891.852" height="2.34299" transform="matrix(0.757968 -0.652292 0.488351 0.872647 285.844 1134.95)" fill="#B8DCFF"/>
<rect width="891.852" height="2.34299" transform="matrix(0.757968 -0.652292 0.488351 0.872647 291.565 1145.17)" fill="#B8DCFF"/>
<rect width="891.852" height="2.34299" transform="matrix(0.757968 -0.652292 0.488351 0.872647 297.285 1155.39)" fill="#B8DCFF"/>
<rect width="891.852" height="2.34299" transform="matrix(0.757968 -0.652292 0.488351 0.872647 303.007 1165.62)" fill="#B8DCFF"/>
<rect width="891.852" height="2.34299" transform="matrix(0.757968 -0.652292 0.488351 0.872647 308.728 1175.84)" fill="#B8DCFF"/>
<rect width="891.852" height="2.34299" transform="matrix(0.757968 -0.652292 0.488351 0.872647 314.448 1186.06)" fill="#B8DCFF"/>
<rect width="891.852" height="2.34299" transform="matrix(0.757968 -0.652292 0.488351 0.872647 320.169 1196.29)" fill="#B8DCFF"/>
<rect width="891.852" height="2.34299" transform="matrix(0.757968 -0.652292 0.488351 0.872647 325.891 1206.51)" fill="#B8DCFF"/>
<rect width="891.852" height="2.34299" transform="matrix(0.757968 -0.652292 0.488351 0.872647 331.611 1216.73)" fill="#B8DCFF"/>
<rect width="891.852" height="2.34299" transform="matrix(0.757968 -0.652292 0.488351 0.872647 337.333 1226.96)" fill="#B8DCFF"/>
<rect width="891.852" height="2.34299" transform="matrix(0.757968 -0.652292 0.488351 0.872647 343.054 1237.18)" fill="#B8DCFF"/>
<rect width="891.852" height="2.34299" transform="matrix(0.757968 -0.652292 0.488351 0.872647 348.775 1247.4)" fill="#B8DCFF"/>
<rect width="891.852" height="2.34299" transform="matrix(0.757968 -0.652292 0.488351 0.872647 354.496 1257.62)" fill="#B8DCFF"/>
<rect width="891.852" height="2.34299" transform="matrix(0.757968 -0.652292 0.488351 0.872647 360.216 1267.85)" fill="#B8DCFF"/>
<rect width="891.852" height="2.34299" transform="matrix(0.757968 -0.652292 0.488351 0.872647 365.938 1278.07)" fill="#B8DCFF"/>
<rect width="891.852" height="2.34299" transform="matrix(0.757968 -0.652292 0.488351 0.872647 371.659 1288.29)" fill="#B8DCFF"/>
<rect width="891.852" height="2.34299" transform="matrix(0.757968 -0.652292 0.488351 0.872647 377.379 1298.52)" fill="#B8DCFF"/>
<rect width="891.852" height="2.34299" transform="matrix(0.757968 -0.652292 0.488351 0.872647 383.101 1308.74)" fill="#B8DCFF"/>
<rect width="891.852" height="2.34299" transform="matrix(0.757968 -0.652292 0.488351 0.872647 388.822 1318.96)" fill="#B8DCFF"/>
<rect width="891.852" height="2.34299" transform="matrix(0.757968 -0.652292 0.488351 0.872647 394.542 1329.19)" fill="#B8DCFF"/>
<rect width="891.852" height="2.34299" transform="matrix(0.757968 -0.652292 0.488351 0.872647 400.264 1339.41)" fill="#B8DCFF"/>
<rect width="891.852" height="2.34299" transform="matrix(0.757968 -0.652292 0.488351 0.872647 405.985 1349.63)" fill="#B8DCFF"/>
<rect width="891.852" height="2.34299" transform="matrix(0.757968 -0.652292 0.488351 0.872647 411.706 1359.85)" fill="#B8DCFF"/>
<rect width="891.852" height="2.34299" transform="matrix(0.757968 -0.652292 0.488351 0.872647 417.427 1370.08)" fill="#B8DCFF"/>
<rect width="891.852" height="2.34299" transform="matrix(0.757968 -0.652292 0.488351 0.872647 423.148 1380.3)" fill="#B8DCFF"/>
<rect width="891.852" height="2.34299" transform="matrix(0.757968 -0.652292 0.488351 0.872647 428.868 1390.52)" fill="#B8DCFF"/>
<rect width="891.852" height="2.34299" transform="matrix(0.757968 -0.652292 0.488351 0.872647 434.59 1400.75)" fill="#B8DCFF"/>
<rect width="891.852" height="2.34299" transform="matrix(0.757968 -0.652292 0.488351 0.872647 440.31 1410.97)" fill="#B8DCFF"/>
<rect width="891.852" height="2.34299" transform="matrix(0.757968 -0.652292 0.488351 0.872647 446.031 1421.19)" fill="#B8DCFF"/>
</g>
<circle cx="393.5" cy="968.5" r="134.5" fill="#FF9F45"/>
<path d="M381 493.5C381 567.782 320.782 628 246.5 628C172.218 628 112 567.782 112 493.5C112 419.218 172.218 359 246.5 359C320.782 359 381 419.218 381 493.5ZM131.792 493.5C131.792 556.852 183.148 608.208 246.5 608.208C309.852 608.208 361.208 556.852 361.208 493.5C361.208 430.148 309.852 378.792 246.5 378.792C183.148 378.792 131.792 430.148 131.792 493.5Z" fill="#0099FF"/>
<circle cx="300" cy="877" r="69" fill="#FF9F45" fill-opacity="0.5"/>
<path fill-rule="evenodd" clip-rule="evenodd" d="M591.233 418.005C727.238 417.657 883.031 437.103 929.834 564.8C980.575 703.242 903.692 854.211 781.184 936.263C671.927 1009.44 533.375 978.154 425.981 902.269C312.977 822.419 213.227 697.471 257.915 566.516C301.345 439.246 456.757 418.348 591.233 418.005Z" fill="#68C3FF"/>
<path fill-rule="evenodd" clip-rule="evenodd" d="M440.556 1168V1118C440.556 1068 440.556 968 425.87 868C411.185 768 381.815 668 308.389 568C234.963 468 117.481 368 58.7407 268C0 168 0 68 0 18L0 -32H793V18C793 68 793 168 793 268C793 368 793 468 793 568C793 668 793 768 793 868C793 968 793 1068 793 1118V1168H440.556Z" fill="#0099FF"/>
<path d="M802.514 587.978L643.225 746.994C647.596 747.814 651.968 748.634 656.339 749.18L804.427 601.093C804.154 596.721 803.334 592.35 802.514 587.978Z" fill="#9D9D9D"/>
<path d="M793.224 560.382L615.902 737.978C619.454 739.618 623.006 740.984 626.831 742.35L797.869 571.311C796.503 567.759 794.864 563.934 793.224 560.382Z" fill="#9D9D9D"/>
<path d="M766.449 521.858C765.356 520.765 763.99 519.672 762.624 518.033L573.552 707.104C574.918 708.743 576.284 709.836 577.377 710.929C578.47 712.022 579.836 713.115 581.203 714.754L770.274 525.683C768.634 524.043 767.542 522.951 766.449 521.858Z" fill="#9D9D9D"/>
<path d="M766.448 710.929C778.743 698.634 788.306 684.699 794.863 668.852L724.372 739.344C739.945 732.787 754.153 723.224 766.448 710.929Z" fill="#9D9D9D"/>
<path d="M694.044 748.087L803.607 638.524C804.426 632.787 805.246 627.049 805.246 621.584L676.831 750C682.842 749.727 688.306 749.18 694.044 748.087Z" fill="#9D9D9D"/>
<path d="M716.722 490.437L545.683 661.475C547.049 665.027 548.415 668.852 550.055 672.404L727.377 495.081C724.099 493.169 720.547 491.803 716.722 490.437Z" fill="#9D9D9D"/>
<path d="M649.235 484.153L539.399 593.716C538.306 600 537.76 606.011 537.486 612.022L667.541 481.967C661.53 482.513 655.246 483.06 649.235 484.153Z" fill="#9D9D9D"/>
<path d="M577.104 521.858C564.809 534.153 555.246 548.087 548.688 563.934L619.18 493.442C603.607 500 589.399 509.563 577.104 521.858Z" fill="#9D9D9D"/>
<path d="M741.585 502.185L557.705 686.065C559.617 689.344 561.803 692.35 563.716 695.082L750.601 508.196C747.869 506.284 744.863 504.371 741.585 502.185Z" fill="#9D9D9D"/>
<path d="M686.94 483.606L538.852 631.694C539.398 636.065 539.945 640.437 541.038 644.808L700.054 485.792C695.956 484.699 691.311 484.153 686.94 483.606Z" fill="#9D9D9D"/>
<path d="M779.564 537.432L592.678 724.317C595.684 726.503 598.689 728.415 601.695 730.328L785.575 546.448C783.935 543.442 781.749 540.164 779.564 537.432Z" fill="#9D9D9D"/>
<path d="M774.755 556.011L615.738 715.028C620.11 715.848 624.481 716.667 628.853 717.214L776.941 569.126C776.394 564.754 775.575 560.383 774.755 556.011Z" fill="#FF9F45"/>
<path d="M765.739 528.415L588.416 705.738C591.968 707.377 595.52 708.743 599.345 710.109L770.383 539.071C768.744 535.519 767.378 531.967 765.739 528.415Z" fill="#FF9F45"/>
<path d="M738.689 489.891C737.596 488.798 736.23 487.705 734.864 486.065L545.792 675.137C547.159 676.776 548.525 677.869 549.618 678.962C550.711 680.055 552.077 681.148 553.443 682.787L742.514 493.716C740.875 492.076 739.782 490.984 738.689 489.891Z" fill="#FF9F45"/>
<path d="M738.688 678.962C750.983 666.667 760.546 652.733 767.104 636.885L696.612 707.377C712.459 700.82 726.393 691.257 738.688 678.962Z" fill="#FF9F45"/>
<path d="M666.284 716.12L775.847 606.557C776.667 600.82 777.486 595.355 777.486 589.618L649.071 718.033C655.082 717.76 660.819 717.213 666.284 716.12Z" fill="#FF9F45"/>
<path d="M689.235 458.47L518.197 629.508C519.563 633.06 520.929 636.885 522.568 640.437L699.891 463.115C696.339 461.202 692.787 459.836 689.235 458.47Z" fill="#FF9F45"/>
<path d="M621.476 452.186L511.913 561.749C510.82 568.033 510.273 574.044 510 580.055L640.055 450C633.771 450.546 627.486 451.093 621.476 452.186Z" fill="#FF9F45"/>
<path d="M549.618 489.891C537.323 502.186 527.76 516.12 521.203 531.967L591.695 461.475C575.848 468.033 561.64 477.596 549.618 489.891Z" fill="#FF9F45"/>
<path d="M713.825 470.219L529.945 654.099C531.857 657.377 534.043 660.383 535.956 663.115L723.114 476.503C720.109 474.317 717.104 472.131 713.825 470.219Z" fill="#FF9F45"/>
<path d="M659.454 451.639L511.366 599.727C511.913 604.099 512.732 608.47 513.552 612.842L672.569 453.825C668.197 452.732 663.825 451.913 659.454 451.639Z" fill="#FF9F45"/>
<path d="M752.077 505.465L565.192 692.35C568.197 694.536 571.203 696.448 574.208 698.361L758.088 514.481C756.176 511.476 754.263 508.197 752.077 505.465Z" fill="#FF9F45"/>
<path d="M269 18.5C269 92.7823 208.782 153 134.5 153C60.2177 153 0 92.7823 0 18.5C0 -55.7823 60.2177 -116 134.5 -116C208.782 -116 269 -55.7823 269 18.5ZM19.7918 18.5C19.7918 81.8516 71.1484 133.208 134.5 133.208C197.852 133.208 249.208 81.8516 249.208 18.5C249.208 -44.8516 197.852 -96.2082 134.5 -96.2082C71.1484 -96.2082 19.7918 -44.8516 19.7918 18.5Z" fill="#FF9F45"/>
<path fill-rule="evenodd" clip-rule="evenodd" d="M563.718 -74.1603C652.637 -79.1085 751.16 -92.5024 817.396 -32.9733C885.532 28.2621 909.853 130.891 891.808 220.705C875.967 299.555 791.407 334.73 732.516 389.503C677.457 440.711 638.856 523.048 563.718 525.851C487.635 528.688 434.323 457.739 381.843 402.58C331.264 349.419 281.433 293.641 273.394 220.705C264.449 139.549 279.501 51.9519 336.785 -6.22807C394.375 -64.7197 481.76 -69.5995 563.718 -74.1603Z" fill="#68C3FF"/>
<circle cx="865" cy="300" r="300" fill="#FF9F45"/>
<path d="M775.7 7.725C786.1 18.025 786.1 34.825 775.7 45.125L738 7.725C748.4 -2.575 765.3 -2.575 775.7 7.725Z" fill="#0099FF"/>
<path d="M755.2 62.525C744.8 52.225 744.8 35.425 755.2 25.125L792.9 62.525C782.6 72.825 765.7 72.825 755.2 62.525Z" stroke="#9D9D9D" stroke-width="2.5152" stroke-miterlimit="10"/>
<path d="M785.8 1080.3C801.54 1080.3 814.3 1067.54 814.3 1051.8C814.3 1036.06 801.54 1023.3 785.8 1023.3C770.06 1023.3 757.3 1036.06 757.3 1051.8C757.3 1067.54 770.06 1080.3 785.8 1080.3Z" fill="#FF9F45"/>
<path d="M775.5 1070C791.24 1070 804 1057.24 804 1041.5C804 1025.76 791.24 1013 775.5 1013C759.76 1013 747 1025.76 747 1041.5C747 1057.24 759.76 1070 775.5 1070Z" stroke="#B8B8B8" stroke-width="3" stroke-miterlimit="10" stroke-linecap="round" stroke-linejoin="round"/>
<path d="M775.5 1055.3C783.122 1055.3 789.3 1049.12 789.3 1041.5C789.3 1033.88 783.122 1027.7 775.5 1027.7C767.879 1027.7 761.7 1033.88 761.7 1041.5C761.7 1049.12 767.879 1055.3 775.5 1055.3Z" stroke="#0099FF" stroke-width="3" stroke-miterlimit="10" stroke-linecap="round" stroke-linejoin="round"/>
</svg>
